<svg width="16" height="16" viewBox="0 0 16 16" xmlns="http://www.w3.org/2000/svg">
  <circle cx="8" cy="8" r="7.5" fill="white" stroke="#333" stroke-width="1"/>

  <g transform="translate(4.2,4.2)">

    <rect x="0" y="0" width="2" height="2" fill="#333" rx="0.3"/>
    <rect x="2.8" y="0" width="2" height="2" fill="#666" rx="0.3"/>
    <rect x="5.6" y="0" width="2" height="2" fill="#333" rx="0.3"/>


    <rect x="0" y="2.8" width="2" height="2" fill="#666" rx="0.3"/>
    <rect x="2.8" y="2.8" width="2" height="2" fill="#333" rx="0.3"/>
    <rect x="5.6" y="2.8" width="2" height="2" fill="#666" rx="0.3"/>


    <rect x="0" y="5.6" width="2" height="2" fill="#333" rx="0.3"/>
    <rect x="2.8" y="5.6" width="2" height="2" fill="#666" rx="0.3"/>
    <rect x="5.6" y="5.6" width="2" height="2" fill="#333" rx="0.3"/>
  </g>

  <g transform="translate(10.3,1.5)">
    <circle cx="1.5" cy="1.5" r="1.2" fill="#333"/>
    <rect x="1.2" y="0.6" width="0.6" height="1.8" fill="white"/>
    <rect x="0.6" y="1.2" width="1.8" height="0.6" fill="white"/>
  </g>
</svg>
